{
  "accessors": [
    {
      "bufferView": 2,
      "componentType": 5126,
      "count": 136,
      "max": [
        30.099845886230469,
        18.477554321289062,
        32.348484039306641
      ],
      "min": [
        -26.085987091064453,
        4.7409400939941406,
        -1.4678993225097656
      ],
      "type": "VEC3"
    },
    {
      "bufferView": 2,
      "byteOffset": 1632,
      "componentType": 5126,
      "count": 136,
      "max": [
        1,
        1,
        1
      ],
      "min": [
        -1,
        -1,
        -1
      ],
      "type": "VEC3"
    },
    {
      "bufferView": 1,
      "componentType": 5126,
      "count": 136,
      "max": [
        0.93810927867889404,
        0.97045886516571045
      ],
      "min": [
        0.019045472145080566,
        0.0010171085596084595
      ],
      "type": "VEC2"
    },
    {
      "bufferView": 0,
      "componentType": 5125,
      "count": 300,
      "max": [
        135
      ],
      "min": [
        0
      ],
      "type": "SCALAR"
    },
    {
      "bufferView": 2,
      "byteOffset": 3264,
      "componentType": 5126,
      "count": 209,
      "max": [
        22.689651489257812,
        8.9340095520019531,
        35.3011474609375
      ],
      "min": [
        19.669548034667969,
        5.9139060974121094,
        32.371749877929688
      ],
      "type": "VEC3"
    },
    {
      "bufferView": 2,
      "byteOffset": 5772,
      "componentType": 5126,
      "count": 209,
      "max": [
        1,
        1,
        1
      ],
      "min": [
        -1,
        -1,
        -1
      ],
      "type": "VEC3"
    },
    {
      "bufferView": 1,
      "byteOffset": 1088,
      "componentType": 5126,
      "count": 209,
      "max": [
        0.65625,
        1
      ],
      "min": [
        0.34374997019767761,
        -7.4505805969238281e-08
      ],
      "type": "VEC2"
    },
    {
      "bufferView": 0,
      "byteOffset": 1200,
      "componentType": 5125,
      "count": 960,
      "max": [
        208
      ],
      "min": [
        0
      ],
      "type": "SCALAR"
    },
    {
      "bufferView": 2,
      "byteOffset": 8280,
      "componentType": 5126,
      "count": 209,
      "max": [
        6.2428092956542969,
        8.9340095520019531,
        35.3011474609375
      ],
      "min": [
        3.2227077484130859,
        5.9139060974121094,
        32.371749877929688
      ],
      "type": "VEC3"
    },
    {
      "bufferView": 2,
      "byteOffset": 10788,
      "componentType": 5126,
      "count": 209,
      "max": [
        1,
        1,
        1
      ],
      "min": [
        -1,
        -1,
        -1
      ],
      "type": "VEC3"
    },
    {
      "bufferView": 1,
      "byteOffset": 2760,
      "componentType": 5126,
      "count": 209,
      "max": [
        0.65625,
        1
      ],
      "min": [
        0.34374997019767761,
        -7.4505805969238281e-08
      ],
      "type": "VEC2"
    },
    {
      "bufferView": 0,
      "byteOffset": 5040,
      "componentType": 5125,
      "count": 960,
      "max": [
        208
      ],
      "min": [
        0
      ],
      "type": "SCALAR"
    },
    {
      "bufferView": 2,
      "byteOffset": 13296,
      "componentType": 5126,
      "count": 209,
      "max": [
        -1.1532542705535889,
        8.9340095520019531,
        35.3011474609375
      ],
      "min": [
        -4.1733560562133789,
        5.9139060974121094,
        32.371749877929688
      ],
      "type": "VEC3"
    },
    {
      "bufferView": 2,
      "byteOffset": 15804,
      "componentType": 5126,
      "count": 209,
      "max": [
        1,
        1,
        1
      ],
      "min": [
        -1,
        -1,
        -1
      ],
      "type": "VEC3"
    },
    {
      "bufferView": 1,
      "byteOffset": 4432,
      "componentType": 5126,
      "count": 209,
      "max": [
        0.65625,
        1
      ],
      "min": [
        0.34374997019767761,
        -7.4505805969238281e-08
      ],
      "type": "VEC2"
    },
    {
      "bufferView": 0,
      "byteOffset": 8880,
      "componentType": 5125,
      "count": 960,
      "max": [
        208
      ],
      "min": [
        0
      ],
      "type": "SCALAR"
    },
    {
      "bufferView": 2,
      "byteOffset": 18312,
      "componentType": 5126,
      "count": 209,
      "max": [
        -8.4789142608642578,
        8.9340095520019531,
        35.3011474609375
      ],
      "min": [
        -11.499015808105469,
        5.9139060974121094,
        32.371749877929688
      ],
      "type": "VEC3"
    },
    {
      "bufferView": 2,
      "byteOffset": 20820,
      "componentType": 5126,
      "count": 209,
      "max": [
        1,
        1,
        1
      ],
      "min": [
        -1,
        -1,
        -1
      ],
      "type": "VEC3"
    },
    {
      "bufferView": 1,
      "byteOffset": 6104,
      "componentType": 5126,
      "count": 209,
      "max": [
        0.65625,
        1
      ],
      "min": [
        0.34374997019767761,
        -7.4505805969238281e-08
      ],
      "type": "VEC2"
    },
    {
      "bufferView": 0,
      "byteOffset": 12720,
      "componentType": 5125,
      "count": 960,
      "max": [
        208
      ],
      "min": [
        0
      ],
      "type": "SCALAR"
    },
    {
      "bufferView": 2,
      "byteOffset": 23328,
      "componentType": 5126,
      "count": 230,
      "max": [
        -18.356044769287109,
        8.9340095520019531,
        35.3011474609375
      ],
      "min": [
        -21.376144409179688,
        5.9139056205749512,
        32.371749877929688
      ],
      "type": "VEC3"
    },
    {
      "bufferView": 2,
      "byteOffset": 26088,
      "componentType": 5126,
      "count": 230,
      "max": [
        1,
        1,
        1
      ],
      "min": [
        -1,
        -1,
        -1
      ],
      "type": "VEC3"
    },
    {
      "bufferView": 1,
      "byteOffset": 7776,
      "componentType": 5126,
      "count": 230,
      "max": [
        0.89885860681533813,
        0.99800801277160645
      ],
      "min": [
        0.0017941290279850364,
        0.0019920321647077799
      ],
      "type": "VEC2"
    },
    {
      "bufferView": 0,
      "byteOffset": 16560,
      "componentType": 5125,
      "count": 960,
      "max": [
        229
      ],
      "min": [
        0
      ],
      "type": "SCALAR"
    },
    {
      "bufferView": 2,
      "byteOffset": 28848,
      "componentType": 5126,
      "count": 196,
      "max": [
        23.569522857666016,
        16.479484558105469,
        34.594886779785156
      ],
      "min": [
        19.086330413818359,
        11.996292114257812,
        32.484951019287109
      ],
      "type": "VEC3"
    },
    {
      "bufferView": 2,
      "byteOffset": 31200,
      "componentType": 5126,
      "count": 196,
      "max": [
        1,
        1,
        1
      ],
      "min": [
        -1,
        -1,
        -1
      ],
      "type": "VEC3"
    },
    {
      "bufferView": 1,
      "byteOffset": 9616,
      "componentType": 5126,
      "count": 196,
      "max": [
        0.65625,
        1
      ],
      "min": [
        0.34375005960464478,
        8.9406967163085938e-08
      ],
      "type": "VEC2"
    },
    {
      "bufferView": 0,
      "byteOffset": 20400,
      "componentType": 5125,
      "count": 864,
      "max": [
        195
      ],
      "min": [
        0
      ],
      "type": "SCALAR"
    },
    {
      "bufferView": 2,
      "byteOffset": 33552,
      "componentType": 5126,
      "count": 84,
      "max": [
        10.940090179443359,
        7.9346199035644531,
        33.311080932617188
      ],
      "min": [
        10.20771598815918,
        7.2022438049316406,
        32.347808837890625
      ],
      "type": "VEC3"
    },
    {
      "bufferView": 2,
      "byteOffset": 34560,
      "componentType": 5126,
      "count": 84,
      "max": [
        1,
        1,
        1
      ],
      "min": [
        -1,
        -1,
        -1
      ],
      "type": "VEC3"
    },
    {
      "bufferView": 1,
      "byteOffset": 11184,
      "componentType": 5126,
      "count": 84,
      "max": [
        0.65625,
        1
      ],
      "min": [
        0.34374997019767761,
        -7.4505805969238281e-08
      ],
      "type": "VEC2"
    },
    {
      "bufferView": 0,
      "byteOffset": 23856,
      "componentType": 5125,
      "count": 240,
      "max": [
        83
      ],
      "min": [
        0
      ],
      "type": "SCALAR"
    },
    {
      "bufferView": 2,
      "byteOffset": 35568,
      "componentType": 5126,
      "count": 84,
      "max": [
        13.053851127624512,
        7.9346199035644531,
        33.311080932617188
      ],
      "min": [
        12.321474075317383,
        7.2022438049316406,
        32.347808837890625
      ],
      "type": "VEC3"
    },
    {
      "bufferView": 2,
      "byteOffset": 36576,
      "componentType": 5126,
      "count": 84,
      "max": [
        1,
        1,
        1
      ],
      "min": [
        -1,
        -1,
        -1
      ],
      "type": "VEC3"
    },
    {
      "bufferView": 1,
      "byteOffset": 11856,
      "componentType": 5126,
      "count": 84,
      "max": [
        0.65625,
        1
      ],
      "min": [
        0.34374997019767761,
        -7.4505805969238281e-08
      ],
      "type": "VEC2"
    },
    {
      "bufferView": 0,
      "byteOffset": 24816,
      "componentType": 5125,
      "count": 240,
      "max": [
        83
      ],
      "min": [
        0
      ],
      "type": "SCALAR"
    },
    {
      "bufferView": 2,
      "byteOffset": 37584,
      "componentType": 5126,
      "count": 84,
      "max": [
        15.061036109924316,
        7.9346199035644531,
        33.311080932617188
      ],
      "min": [
        14.328660011291504,
        7.2022438049316406,
        32.347808837890625
      ],
      "type": "VEC3"
    },
    {
      "bufferView": 2,
      "byteOffset": 38592,
      "componentType": 5126,
      "count": 84,
      "max": [
        1,
        1,
        1
      ],
      "min": [
        -1,
        -1,
        -1
      ],
      "type": "VEC3"
    },
    {
      "bufferView": 1,
      "byteOffset": 12528,
      "componentType": 5126,
      "count": 84,
      "max": [
        0.65625,
        1
      ],
      "min": [
        0.34374997019767761,
        -7.4505805969238281e-08
      ],
      "type": "VEC2"
    },
    {
      "bufferView": 0,
      "byteOffset": 25776,
      "componentType": 5125,
      "count": 240,
      "max": [
        83
      ],
      "min": [
        0
      ],
      "type": "SCALAR"
    }
  ],
  "asset": {
    "extras": {
      "author": "ElectroFrames (https://sketchfab.com/ElectroFrames)",
      "license": "CC-BY-4.0 (http://creativecommons.org/licenses/by/4.0/)",
      "source": "https://sketchfab.com/3d-models/stereo-c48f7003cead466298150e09b83684f4",
      "title": "Stereo"
    },
    "generator": "Sketchfab-7.35.0",
    "version": "2.0"
  },
  "bufferViews": [
    {
      "buffer": 0,
      "byteLength": 26736,
      "byteOffset": 0,
      "name": "floatBufferViews",
      "target": 34963
    },
    {
      "buffer": 0,
      "byteLength": 13200,
      "byteOffset": 26736,
      "byteStride": 8,
      "name": "floatBufferViews",
      "target": 34962
    },
    {
      "buffer": 0,
      "byteLength": 39600,
      "byteOffset": 39936,
      "byteStride": 12,
      "name": "floatBufferViews",
      "target": 34962
    }
  ],
  "buffers": [
    {
      "byteLength": 79536,
      "uri": "scene.bin"
    }
  ],
  "images": [
    {
      "uri": "textures/blinn2_baseColor.jpeg"
    }
  ],
  "materials": [
    {
      "doubleSided": true,
      "emissiveFactor": [
        0,
        0,
        0
      ],
      "name": "blinn2",
      "pbrMetallicRoughness": {
        "baseColorFactor": [
          1,
          1,
          1,
          1
        ],
        "baseColorTexture": {
          "index": 0,
          "texCoord": 0
        },
        "metallicFactor": 0,
        "roughnessFactor": 0.92074838162494832
      }
    },
    {
      "doubleSided": true,
      "emissiveFactor": [
        0,
        0,
        0
      ],
      "name": "lambert1",
      "pbrMetallicRoughness": {
        "baseColorFactor": [
          0.5,
          0.5,
          0.5,
          1
        ],
        "metallicFactor": 0,
        "roughnessFactor": 0.59999999999999998
      }
    }
  ],
  "meshes": [
    {
      "name": "Stereo_Receiver_blinn2_0",
      "primitives": [
        {
          "attributes": {
            "NORMAL": 1,
            "POSITION": 0,
            "TEXCOORD_0": 2
          },
          "indices": 3,
          "material": 0,
          "mode": 4
        }
      ]
    },
    {
      "name": "Knob_05_lambert1_0",
      "primitives": [
        {
          "attributes": {
            "NORMAL": 5,
            "POSITION": 4,
            "TEXCOORD_0": 6
          },
          "indices": 7,
          "material": 1,
          "mode": 4
        }
      ]
    },
    {
      "name": "Knob_04_lambert1_0",
      "primitives": [
        {
          "attributes": {
            "NORMAL": 9,
            "POSITION": 8,
            "TEXCOORD_0": 10
          },
          "indices": 11,
          "material": 1,
          "mode": 4
        }
      ]
    },
    {
      "name": "Knob_03_lambert1_0",
      "primitives": [
        {
          "attributes": {
            "NORMAL": 13,
            "POSITION": 12,
            "TEXCOORD_0": 14
          },
          "indices": 15,
          "material": 1,
          "mode": 4
        }
      ]
    },
    {
      "name": "Knob_02_lambert1_0",
      "primitives": [
        {
          "attributes": {
            "NORMAL": 17,
            "POSITION": 16,
            "TEXCOORD_0": 18
          },
          "indices": 19,
          "material": 1,
          "mode": 4
        }
      ]
    },
    {
      "name": "Knob_01_lambert1_0",
      "primitives": [
        {
          "attributes": {
            "NORMAL": 21,
            "POSITION": 20,
            "TEXCOORD_0": 22
          },
          "indices": 23,
          "material": 1,
          "mode": 4
        }
      ]
    },
    {
      "name": "TunerKnob_lambert1_0",
      "primitives": [
        {
          "attributes": {
            "NORMAL": 25,
            "POSITION": 24,
            "TEXCOORD_0": 26
          },
          "indices": 27,
          "material": 1,
          "mode": 4
        }
      ]
    },
    {
      "name": "Button_01_lambert1_0",
      "primitives": [
        {
          "attributes": {
            "NORMAL": 29,
            "POSITION": 28,
            "TEXCOORD_0": 30
          },
          "indices": 31,
          "material": 1,
          "mode": 4
        }
      ]
    },
    {
      "name": "Button_02_lambert1_0",
      "primitives": [
        {
          "attributes": {
            "NORMAL": 33,
            "POSITION": 32,
            "TEXCOORD_0": 34
          },
          "indices": 35,
          "material": 1,
          "mode": 4
        }
      ]
    },
    {
      "name": "Button_03_lambert1_0",
      "primitives": [
        {
          "attributes": {
            "NORMAL": 37,
            "POSITION": 36,
            "TEXCOORD_0": 38
          },
          "indices": 39,
          "material": 1,
          "mode": 4
        }
      ]
    }
  ],
  "nodes": [
    {
      "children": [
        1
      ],
      "name": "RootNode (gltf orientation matrix)",
      "rotation": [
        -0.70710678118654746,
        -0,
        -0,
        0.70710678118654757
      ]
    },
    {
      "children": [
        2
      ],
      "name": "RootNode (model correction matrix)"
    },
    {
      "children": [
        3
      ],
      "matrix": [
        1,
        0,
        0,
        0,
        0,
        0,
        1,
        0,
        0,
        -1,
        0,
        0,
        0,
        0,
        0,
        1
      ],
      "name": "35a29667749a4973bafd840ebceddc7e.fbx"
    },
    {
      "children": [
        4,
        6,
        8,
        10,
        12,
        14,
        16,
        18,
        20,
        22
      ],
      "name": "RootNode"
    },
    {
      "children": [
        5
      ],
      "matrix": [
        0.032808400690555573,
        0,
        0,
        0,
        0,
        0.032808400690555573,
        0,
        0,
        0,
        0,
        0.032808400690555573,
        0,
        0,
        0,
        0,
        1
      ],
      "name": "Stereo_Receiver"
    },
    {
      "mesh": 0,
      "name": "Stereo_Receiver_blinn2_0"
    },
    {
      "children": [
        7
      ],
      "matrix": [
        0.032808400690555573,
        0,
        0,
        0,
        0,
        0.032808400690555573,
        0,
        0,
        0,
        0,
        0.032808400690555573,
        0,
        0,
        0,
        0,
        1
      ],
      "name": "Knob_05"
    },
    {
      "mesh": 1,
      "name": "Knob_05_lambert1_0"
    },
    {
      "children": [
        9
      ],
      "matrix": [
        0.032808400690555573,
        0,
        0,
        0,
        0,
        0.032808400690555573,
        0,
        0,
        0,
        0,
        0.032808400690555573,
        0,
        0,
        0,
        0,
        1
      ],
      "name": "Knob_04"
    },
    {
      "mesh": 2,
      "name": "Knob_04_lambert1_0"
    },
    {
      "children": [
        11
      ],
      "matrix": [
        0.032808400690555573,
        0,
        0,
        0,
        0,
        0.032808400690555573,
        0,
        0,
        0,
        0,
        0.032808400690555573,
        0,
        0,
        0,
        0,
        1
      ],
      "name": "Knob_03"
    },
    {
      "mesh": 3,
      "name": "Knob_03_lambert1_0"
    },
    {
      "children": [
        13
      ],
      "matrix": [
        0.032808400690555573,
        0,
        0,
        0,
        0,
        0.032808400690555573,
        0,
        0,
        0,
        0,
        0.032808400690555573,
        0,
        0,
        0,
        0,
        1
      ],
      "name": "Knob_02"
    },
    {
      "mesh": 4,
      "name": "Knob_02_lambert1_0"
    },
    {
      "children": [
        15
      ],
      "matrix": [
        0.032808400690555573,
        0,
        0,
        0,
        0,
        0.032808400690555573,
        0,
        0,
        0,
        0,
        0.032808400690555573,
        0,
        0,
        0,
        0,
        1
      ],
      "name": "Knob_01"
    },
    {
      "mesh": 5,
      "name": "Knob_01_lambert1_0"
    },
    {
      "children": [
        17
      ],
      "matrix": [
        0.032808400690555573,
        0,
        0,
        0,
        0,
        0.032808400690555573,
        0,
        0,
        0,
        0,
        0.032808400690555573,
        0,
        0,
        0,
        0,
        1
      ],
      "name": "TunerKnob"
    },
    {
      "mesh": 6,
      "name": "TunerKnob_lambert1_0"
    },
    {
      "children": [
        19
      ],
      "matrix": [
        0.032808400690555573,
        0,
        0,
        0,
        0,
        0.032808400690555573,
        0,
        0,
        0,
        0,
        0.032808400690555573,
        0,
        0,
        0,
        0,
        1
      ],
      "name": "Button_01"
    },
    {
      "mesh": 7,
      "name": "Button_01_lambert1_0"
    },
    {
      "children": [
        21
      ],
      "matrix": [
        0.032808400690555573,
        0,
        0,
        0,
        0,
        0.032808400690555573,
        0,
        0,
        0,
        0,
        0.032808400690555573,
        0,
        0,
        0,
        0,
        1
      ],
      "name": "Button_02"
    },
    {
      "mesh": 8,
      "name": "Button_02_lambert1_0"
    },
    {
      "children": [
        23
      ],
      "matrix": [
        0.032808400690555573,
        0,
        0,
        0,
        0,
        0.032808400690555573,
        0,
        0,
        0,
        0,
        0.032808400690555573,
        0,
        0,
        0,
        0,
        1
      ],
      "name": "Button_03"
    },
    {
      "mesh": 9,
      "name": "Button_03_lambert1_0"
    }
  ],
  "samplers": [
    {
      "magFilter": 9729,
      "minFilter": 9987,
      "wrapS": 10497,
      "wrapT": 10497
    }
  ],
  "scene": 0,
  "scenes": [
    {
      "name": "OSG_Scene",
      "nodes": [
        0
      ]
    }
  ],
  "textures": [
    {
      "sampler": 0,
      "source": 0
    }
  ]
}

