{
  "accessors": [
    {
      "bufferView": 2,
      "componentType": 5126,
      "count": 2918,
      "max": [
        89.25483703613281,
        84.41231536865234,
        89.2329330444336
      ],
      "min": [
        -116.06998443603516,
        -102.71466827392578,
        -89.2329330444336
      ],
      "type": "VEC3"
    },
    {
      "bufferView": 2,
      "byteOffset": 35016,
      "componentType": 5126,
      "count": 2918,
      "max": [
        0.9999775290489197,
        1.0,
        0.9999674558639526
      ],
      "min": [
        -0.999981164932251,
        -1.0,
        -0.9999674558639526
      ],
      "type": "VEC3"
    },
    {
      "bufferView": 3,
      "componentType": 5126,
      "count": 2918,
      "max": [
        1.0,
        0.9603883028030396,
        1.0,
        1.0
      ],
      "min": [
        -1.0,
        -0.9437092542648315,
        -1.0,
        1.0
      ],
      "type": "VEC4"
    },
    {
      "bufferView": 1,
      "componentType": 5126,
      "count": 2918,
      "max": [
        0.9724489450454712,
        0.9906116127967834
      ],
      "min": [
        0.016992198303341866,
        0.00476992130279541
      ],
      "type": "VEC2"
    },
    {
      "bufferView": 1,
      "byteOffset": 23344,
      "componentType": 5126,
      "count": 2918,
      "max": [
        0.9724489450454712,
        0.9906116127967834
      ],
      "min": [
        0.016992198303341866,
        0.00476992130279541
      ],
      "type": "VEC2"
    },
    {
      "bufferView": 0,
      "componentType": 5125,
      "count": 12528,
      "type": "SCALAR"
    }
  ],
  "asset": {
    "extras": {
      "author": "Lanzaman (https://sketchfab.com/lanzaboy)",
      "license": "CC-BY-4.0 (http://creativecommons.org/licenses/by/4.0/)",
      "source": "https://sketchfab.com/3d-models/canarian-cafe-milk-jug-344c9e052be24acfb0bc1bdca53290f9",
      "title": "Canarian Cafe - Milk Jug"
    },
    "generator": "Sketchfab-11.58.0",
    "version": "2.0"
  },
  "bufferViews": [
    {
      "buffer": 0,
      "byteLength": 50112,
      "name": "floatBufferViews",
      "target": 34963
    },
    {
      "buffer": 0,
      "byteLength": 46688,
      "byteOffset": 50112,
      "byteStride": 8,
      "name": "floatBufferViews",
      "target": 34962
    },
    {
      "buffer": 0,
      "byteLength": 70032,
      "byteOffset": 96800,
      "byteStride": 12,
      "name": "floatBufferViews",
      "target": 34962
    },
    {
      "buffer": 0,
      "byteLength": 46688,
      "byteOffset": 166832,
      "byteStride": 16,
      "name": "floatBufferViews",
      "target": 34962
    }
  ],
  "buffers": [
    {
      "byteLength": 213520,
      "uri": "scene.bin"
    }
  ],
  "images": [
    {
      "uri": "textures/material_baseColor.png"
    },
    {
      "uri": "textures/material_normal.png"
    }
  ],
  "materials": [
    {
      "doubleSided": true,
      "name": "material",
      "normalTexture": {
        "index": 1,
        "scale": 0.548203649447619
      },
      "pbrMetallicRoughness": {
        "baseColorTexture": {
          "index": 0
        },
        "roughnessFactor": 0.11891732381528641
      }
    }
  ],
  "meshes": [
    {
      "name": "MILK_JUG_1_Mat_0",
      "primitives": [
        {
          "attributes": {
            "NORMAL": 1,
            "POSITION": 0,
            "TANGENT": 2,
            "TEXCOORD_0": 3,
            "TEXCOORD_1": 4
          },
          "indices": 5,
          "material": 0,
          "mode": 4
        }
      ]
    }
  ],
  "nodes": [
    {
      "children": [
        1
      ],
      "matrix": [
        1.0,
        0.0,
        0.0,
        0.0,
        0.0,
        2.220446049250313e-16,
        -1.0,
        0.0,
        0.0,
        1.0,
        2.220446049250313e-16,
        0.0,
        0.0,
        0.0,
        0.0,
        1.0
      ],
      "name": "Sketchfab_model"
    },
    {
      "children": [
        2
      ],
      "matrix": [
        0.009999999776482582,
        0.0,
        0.0,
        0.0,
        0.0,
        0.0,
        0.009999999776482582,
        0.0,
        0.0,
        -0.009999999776482582,
        0.0,
        0.0,
        0.0,
        0.0,
        0.0,
        1.0
      ],
      "name": "6b2a6181b3b74821a5c36757e0b0a49d.fbx"
    },
    {
      "children": [
        3
      ],
      "name": "RootNode"
    },
    {
      "children": [
        4
      ],
      "matrix": [
        1.0,
        0.0,
        0.0,
        0.0,
        0.0,
        1.0,
        0.0,
        0.0,
        0.0,
        0.0,
        1.0,
        0.0,
        1059.95947265625,
        0.0,
        0.0,
        1.0
      ],
      "name": "MILK_JUG_1"
    },
    {
      "mesh": 0,
      "name": "MILK_JUG_1_Mat_0"
    }
  ],
  "samplers": [
    {
      "magFilter": 9729,
      "minFilter": 9987,
      "wrapS": 10497,
      "wrapT": 10497
    }
  ],
  "scene": 0,
  "scenes": [
    {
      "name": "Sketchfab_Scene",
      "nodes": [
        0
      ]
    }
  ],
  "textures": [
    {
      "sampler": 0,
      "source": 0
    },
    {
      "sampler": 0,
      "source": 1
    }
  ]
}
